M48
;DRILL file {KiCad 4.0.2+dfsg1-stable} date jue 02 nov 2017 16:34:24 ART
;FORMAT={-:-/ absolute / inch / decimal}
FMAT,2
INCH,TZ
T1C0.030
T2C0.040
T3C0.047
T4C0.047
%
G90
G05
M72
T1
X5.4Y-4.4909
X5.4Y-4.55
X5.4492Y-4.4909
X5.4492Y-4.55
X5.5083Y-4.4909
X5.5083Y-4.55
X5.5575Y-4.4909
X5.5575Y-4.55
T2
X4.Y-3.95
X4.Y-4.05
X4.Y-4.15
X4.Y-4.25
X4.Y-4.35
X4.Y-4.45
X4.1Y-3.95
X4.1Y-4.05
X4.1Y-4.15
X4.1Y-4.25
X4.1Y-4.35
X4.1Y-4.45
T3
X5.5Y-4.75
X5.5Y-4.85
X5.5Y-4.95
T4
X4.1Y-4.75
X4.2378Y-4.75
X4.8Y-4.9
X4.9378Y-4.9
X5.3366Y-5.2
X5.4744Y-5.2
X5.6122Y-5.2
X5.75Y-5.2
T0
M30
